<mxfile host="app.diagrams.net" agent="Mozilla/5.0 (Windows NT 10.0; Win64; x64) AppleWebKit/537.36 (KHTML, like Gecko) Chrome/136.0.0.0 Safari/537.36" version="27.0.6">
  <diagram name="Страница — 1" id="s_55YCn9lSW4XCFz-Cu6">
    <mxGraphModel dx="1678" dy="914" grid="1" gridSize="10" guides="1" tooltips="1" connect="1" arrows="1" fold="1" page="1" pageScale="1" pageWidth="827" pageHeight="1169" math="0" shadow="0">
      <root>
        <mxCell id="0" />
        <mxCell id="1" parent="0" />
        <mxCell id="bqzICzT4jUBrBd7Mnafd-12" style="edgeStyle=orthogonalEdgeStyle;rounded=0;orthogonalLoop=1;jettySize=auto;html=1;entryX=0.5;entryY=0;entryDx=0;entryDy=0;" edge="1" parent="1" source="bqzICzT4jUBrBd7Mnafd-1" target="bqzICzT4jUBrBd7Mnafd-4">
          <mxGeometry relative="1" as="geometry" />
        </mxCell>
        <mxCell id="bqzICzT4jUBrBd7Mnafd-62" style="edgeStyle=orthogonalEdgeStyle;rounded=0;orthogonalLoop=1;jettySize=auto;html=1;exitX=0.5;exitY=1;exitDx=0;exitDy=0;entryX=0.5;entryY=0;entryDx=0;entryDy=0;" edge="1" parent="1" source="bqzICzT4jUBrBd7Mnafd-1" target="bqzICzT4jUBrBd7Mnafd-46">
          <mxGeometry relative="1" as="geometry" />
        </mxCell>
        <mxCell id="bqzICzT4jUBrBd7Mnafd-63" style="edgeStyle=orthogonalEdgeStyle;rounded=0;orthogonalLoop=1;jettySize=auto;html=1;exitX=0.5;exitY=1;exitDx=0;exitDy=0;entryX=0.5;entryY=0;entryDx=0;entryDy=0;" edge="1" parent="1" source="bqzICzT4jUBrBd7Mnafd-1" target="bqzICzT4jUBrBd7Mnafd-25">
          <mxGeometry relative="1" as="geometry" />
        </mxCell>
        <mxCell id="bqzICzT4jUBrBd7Mnafd-65" style="edgeStyle=orthogonalEdgeStyle;rounded=0;orthogonalLoop=1;jettySize=auto;html=1;exitX=0.5;exitY=0;exitDx=0;exitDy=0;entryX=0.5;entryY=1;entryDx=0;entryDy=0;" edge="1" parent="1" source="bqzICzT4jUBrBd7Mnafd-1" target="bqzICzT4jUBrBd7Mnafd-64">
          <mxGeometry relative="1" as="geometry" />
        </mxCell>
        <mxCell id="bqzICzT4jUBrBd7Mnafd-68" style="edgeStyle=orthogonalEdgeStyle;rounded=0;orthogonalLoop=1;jettySize=auto;html=1;entryX=0.5;entryY=1;entryDx=0;entryDy=0;" edge="1" parent="1" source="bqzICzT4jUBrBd7Mnafd-1" target="bqzICzT4jUBrBd7Mnafd-54">
          <mxGeometry relative="1" as="geometry" />
        </mxCell>
        <mxCell id="bqzICzT4jUBrBd7Mnafd-1" value="" style="rounded=0;whiteSpace=wrap;html=1;" vertex="1" parent="1">
          <mxGeometry x="360" y="400" width="120" height="40" as="geometry" />
        </mxCell>
        <mxCell id="bqzICzT4jUBrBd7Mnafd-2" value="Главная страница" style="text;html=1;align=center;verticalAlign=middle;whiteSpace=wrap;rounded=0;" vertex="1" parent="1">
          <mxGeometry x="390" y="405" width="60" height="30" as="geometry" />
        </mxCell>
        <mxCell id="bqzICzT4jUBrBd7Mnafd-4" value="" style="rounded=0;whiteSpace=wrap;html=1;" vertex="1" parent="1">
          <mxGeometry x="360" y="520" width="120" height="40" as="geometry" />
        </mxCell>
        <mxCell id="bqzICzT4jUBrBd7Mnafd-5" value="Верхнее меню" style="text;html=1;align=center;verticalAlign=middle;whiteSpace=wrap;rounded=0;" vertex="1" parent="1">
          <mxGeometry x="390" y="525" width="60" height="30" as="geometry" />
        </mxCell>
        <mxCell id="bqzICzT4jUBrBd7Mnafd-14" style="edgeStyle=orthogonalEdgeStyle;rounded=0;orthogonalLoop=1;jettySize=auto;html=1;entryX=0.5;entryY=0;entryDx=0;entryDy=0;exitX=0.5;exitY=1;exitDx=0;exitDy=0;" edge="1" parent="1" source="bqzICzT4jUBrBd7Mnafd-4" target="bqzICzT4jUBrBd7Mnafd-8">
          <mxGeometry relative="1" as="geometry">
            <mxPoint x="540" y="640" as="sourcePoint" />
          </mxGeometry>
        </mxCell>
        <mxCell id="bqzICzT4jUBrBd7Mnafd-15" style="edgeStyle=orthogonalEdgeStyle;rounded=0;orthogonalLoop=1;jettySize=auto;html=1;entryX=0.5;entryY=0;entryDx=0;entryDy=0;" edge="1" parent="1" source="bqzICzT4jUBrBd7Mnafd-8" target="bqzICzT4jUBrBd7Mnafd-10">
          <mxGeometry relative="1" as="geometry" />
        </mxCell>
        <mxCell id="bqzICzT4jUBrBd7Mnafd-84" style="edgeStyle=orthogonalEdgeStyle;rounded=0;orthogonalLoop=1;jettySize=auto;html=1;exitX=0.5;exitY=1;exitDx=0;exitDy=0;entryX=0.5;entryY=0;entryDx=0;entryDy=0;" edge="1" parent="1" source="bqzICzT4jUBrBd7Mnafd-8" target="bqzICzT4jUBrBd7Mnafd-9">
          <mxGeometry relative="1" as="geometry" />
        </mxCell>
        <mxCell id="bqzICzT4jUBrBd7Mnafd-8" value="Страница поиска" style="rounded=0;whiteSpace=wrap;html=1;" vertex="1" parent="1">
          <mxGeometry x="360" y="600" width="120" height="40" as="geometry" />
        </mxCell>
        <mxCell id="bqzICzT4jUBrBd7Mnafd-45" style="edgeStyle=orthogonalEdgeStyle;rounded=0;orthogonalLoop=1;jettySize=auto;html=1;entryX=1;entryY=0.5;entryDx=0;entryDy=0;" edge="1" parent="1" source="bqzICzT4jUBrBd7Mnafd-9" target="bqzICzT4jUBrBd7Mnafd-17">
          <mxGeometry relative="1" as="geometry" />
        </mxCell>
        <mxCell id="bqzICzT4jUBrBd7Mnafd-9" value="Написание запроса" style="rounded=0;whiteSpace=wrap;html=1;" vertex="1" parent="1">
          <mxGeometry x="520" y="680" width="120" height="40" as="geometry" />
        </mxCell>
        <mxCell id="bqzICzT4jUBrBd7Mnafd-19" style="edgeStyle=orthogonalEdgeStyle;rounded=0;orthogonalLoop=1;jettySize=auto;html=1;entryX=0;entryY=0.5;entryDx=0;entryDy=0;" edge="1" parent="1" source="bqzICzT4jUBrBd7Mnafd-10" target="bqzICzT4jUBrBd7Mnafd-17">
          <mxGeometry relative="1" as="geometry" />
        </mxCell>
        <mxCell id="bqzICzT4jUBrBd7Mnafd-10" value="Фильтр" style="rounded=0;whiteSpace=wrap;html=1;" vertex="1" parent="1">
          <mxGeometry x="360" y="680" width="120" height="40" as="geometry" />
        </mxCell>
        <mxCell id="bqzICzT4jUBrBd7Mnafd-21" style="edgeStyle=orthogonalEdgeStyle;rounded=0;orthogonalLoop=1;jettySize=auto;html=1;entryX=0.5;entryY=0;entryDx=0;entryDy=0;" edge="1" parent="1" source="bqzICzT4jUBrBd7Mnafd-17" target="bqzICzT4jUBrBd7Mnafd-20">
          <mxGeometry relative="1" as="geometry" />
        </mxCell>
        <mxCell id="bqzICzT4jUBrBd7Mnafd-17" value="Выбор результата поиска" style="rounded=0;whiteSpace=wrap;html=1;" vertex="1" parent="1">
          <mxGeometry x="440" y="760" width="120" height="40" as="geometry" />
        </mxCell>
        <mxCell id="bqzICzT4jUBrBd7Mnafd-20" value="Взаимодействие с результатом" style="rounded=0;whiteSpace=wrap;html=1;" vertex="1" parent="1">
          <mxGeometry x="440" y="840" width="120" height="40" as="geometry" />
        </mxCell>
        <mxCell id="bqzICzT4jUBrBd7Mnafd-30" value="" style="edgeStyle=orthogonalEdgeStyle;rounded=0;orthogonalLoop=1;jettySize=auto;html=1;" edge="1" parent="1" source="bqzICzT4jUBrBd7Mnafd-25" target="bqzICzT4jUBrBd7Mnafd-29">
          <mxGeometry relative="1" as="geometry" />
        </mxCell>
        <mxCell id="bqzICzT4jUBrBd7Mnafd-82" style="edgeStyle=orthogonalEdgeStyle;rounded=0;orthogonalLoop=1;jettySize=auto;html=1;exitX=0.5;exitY=1;exitDx=0;exitDy=0;entryX=0.5;entryY=0;entryDx=0;entryDy=0;" edge="1" parent="1" source="bqzICzT4jUBrBd7Mnafd-25" target="bqzICzT4jUBrBd7Mnafd-31">
          <mxGeometry relative="1" as="geometry" />
        </mxCell>
        <mxCell id="bqzICzT4jUBrBd7Mnafd-25" value="Страница сообщений" style="rounded=0;whiteSpace=wrap;html=1;" vertex="1" parent="1">
          <mxGeometry x="160" y="520" width="120" height="40" as="geometry" />
        </mxCell>
        <mxCell id="bqzICzT4jUBrBd7Mnafd-34" value="" style="edgeStyle=orthogonalEdgeStyle;rounded=0;orthogonalLoop=1;jettySize=auto;html=1;" edge="1" parent="1" source="bqzICzT4jUBrBd7Mnafd-29" target="bqzICzT4jUBrBd7Mnafd-33">
          <mxGeometry relative="1" as="geometry" />
        </mxCell>
        <mxCell id="bqzICzT4jUBrBd7Mnafd-29" value="Создание нового чата" style="rounded=0;whiteSpace=wrap;html=1;" vertex="1" parent="1">
          <mxGeometry x="160" y="600" width="120" height="40" as="geometry" />
        </mxCell>
        <mxCell id="bqzICzT4jUBrBd7Mnafd-83" style="edgeStyle=orthogonalEdgeStyle;rounded=0;orthogonalLoop=1;jettySize=auto;html=1;exitX=0.5;exitY=1;exitDx=0;exitDy=0;entryX=0;entryY=0.5;entryDx=0;entryDy=0;" edge="1" parent="1" source="bqzICzT4jUBrBd7Mnafd-31" target="bqzICzT4jUBrBd7Mnafd-35">
          <mxGeometry relative="1" as="geometry" />
        </mxCell>
        <mxCell id="bqzICzT4jUBrBd7Mnafd-31" value="Выбор существующего чата" style="rounded=0;whiteSpace=wrap;html=1;" vertex="1" parent="1">
          <mxGeometry y="600" width="120" height="40" as="geometry" />
        </mxCell>
        <mxCell id="bqzICzT4jUBrBd7Mnafd-36" value="" style="edgeStyle=orthogonalEdgeStyle;rounded=0;orthogonalLoop=1;jettySize=auto;html=1;" edge="1" parent="1" source="bqzICzT4jUBrBd7Mnafd-33" target="bqzICzT4jUBrBd7Mnafd-35">
          <mxGeometry relative="1" as="geometry" />
        </mxCell>
        <mxCell id="bqzICzT4jUBrBd7Mnafd-33" value="Выбор адресата" style="rounded=0;whiteSpace=wrap;html=1;" vertex="1" parent="1">
          <mxGeometry x="160" y="680" width="120" height="40" as="geometry" />
        </mxCell>
        <mxCell id="bqzICzT4jUBrBd7Mnafd-38" value="" style="edgeStyle=orthogonalEdgeStyle;rounded=0;orthogonalLoop=1;jettySize=auto;html=1;" edge="1" parent="1" source="bqzICzT4jUBrBd7Mnafd-35" target="bqzICzT4jUBrBd7Mnafd-37">
          <mxGeometry relative="1" as="geometry" />
        </mxCell>
        <mxCell id="bqzICzT4jUBrBd7Mnafd-35" value="Написание сообщения" style="rounded=0;whiteSpace=wrap;html=1;" vertex="1" parent="1">
          <mxGeometry x="160" y="760" width="120" height="40" as="geometry" />
        </mxCell>
        <mxCell id="bqzICzT4jUBrBd7Mnafd-37" value="Отправка сообщения" style="rounded=0;whiteSpace=wrap;html=1;" vertex="1" parent="1">
          <mxGeometry x="160" y="840" width="120" height="40" as="geometry" />
        </mxCell>
        <mxCell id="bqzICzT4jUBrBd7Mnafd-49" value="" style="edgeStyle=orthogonalEdgeStyle;rounded=0;orthogonalLoop=1;jettySize=auto;html=1;" edge="1" parent="1" source="bqzICzT4jUBrBd7Mnafd-46" target="bqzICzT4jUBrBd7Mnafd-48">
          <mxGeometry relative="1" as="geometry" />
        </mxCell>
        <mxCell id="bqzICzT4jUBrBd7Mnafd-46" value="Страница профиля" style="rounded=0;whiteSpace=wrap;html=1;" vertex="1" parent="1">
          <mxGeometry x="680" y="520" width="120" height="40" as="geometry" />
        </mxCell>
        <mxCell id="bqzICzT4jUBrBd7Mnafd-51" value="" style="edgeStyle=orthogonalEdgeStyle;rounded=0;orthogonalLoop=1;jettySize=auto;html=1;" edge="1" parent="1" source="bqzICzT4jUBrBd7Mnafd-48" target="bqzICzT4jUBrBd7Mnafd-50">
          <mxGeometry relative="1" as="geometry" />
        </mxCell>
        <mxCell id="bqzICzT4jUBrBd7Mnafd-48" value="Создание поста" style="rounded=0;whiteSpace=wrap;html=1;" vertex="1" parent="1">
          <mxGeometry x="680" y="600" width="120" height="40" as="geometry" />
        </mxCell>
        <mxCell id="bqzICzT4jUBrBd7Mnafd-53" value="" style="edgeStyle=orthogonalEdgeStyle;rounded=0;orthogonalLoop=1;jettySize=auto;html=1;" edge="1" parent="1" source="bqzICzT4jUBrBd7Mnafd-50" target="bqzICzT4jUBrBd7Mnafd-52">
          <mxGeometry relative="1" as="geometry" />
        </mxCell>
        <mxCell id="bqzICzT4jUBrBd7Mnafd-50" value="Заполнение поста" style="rounded=0;whiteSpace=wrap;html=1;" vertex="1" parent="1">
          <mxGeometry x="680" y="680" width="120" height="40" as="geometry" />
        </mxCell>
        <mxCell id="bqzICzT4jUBrBd7Mnafd-52" value="Публикация поста" style="rounded=0;whiteSpace=wrap;html=1;" vertex="1" parent="1">
          <mxGeometry x="680" y="760" width="120" height="40" as="geometry" />
        </mxCell>
        <mxCell id="bqzICzT4jUBrBd7Mnafd-59" value="" style="edgeStyle=orthogonalEdgeStyle;rounded=0;orthogonalLoop=1;jettySize=auto;html=1;" edge="1" parent="1" source="bqzICzT4jUBrBd7Mnafd-54" target="bqzICzT4jUBrBd7Mnafd-58">
          <mxGeometry relative="1" as="geometry" />
        </mxCell>
        <mxCell id="bqzICzT4jUBrBd7Mnafd-54" value="Выбор сторис" style="rounded=0;whiteSpace=wrap;html=1;" vertex="1" parent="1">
          <mxGeometry x="360" y="200" width="120" height="40" as="geometry" />
        </mxCell>
        <mxCell id="bqzICzT4jUBrBd7Mnafd-58" value="Взаимодействие со сторис" style="rounded=0;whiteSpace=wrap;html=1;" vertex="1" parent="1">
          <mxGeometry x="360" y="120" width="120" height="40" as="geometry" />
        </mxCell>
        <mxCell id="bqzICzT4jUBrBd7Mnafd-67" value="" style="edgeStyle=orthogonalEdgeStyle;rounded=0;orthogonalLoop=1;jettySize=auto;html=1;" edge="1" parent="1" source="bqzICzT4jUBrBd7Mnafd-64" target="bqzICzT4jUBrBd7Mnafd-66">
          <mxGeometry relative="1" as="geometry" />
        </mxCell>
        <mxCell id="bqzICzT4jUBrBd7Mnafd-64" value="Просмотр новостной ленты" style="rounded=0;whiteSpace=wrap;html=1;" vertex="1" parent="1">
          <mxGeometry x="520" y="200" width="120" height="40" as="geometry" />
        </mxCell>
        <mxCell id="bqzICzT4jUBrBd7Mnafd-66" value="Взаимодействие с постом из ленты" style="rounded=0;whiteSpace=wrap;html=1;" vertex="1" parent="1">
          <mxGeometry x="520" y="120" width="120" height="40" as="geometry" />
        </mxCell>
        <mxCell id="bqzICzT4jUBrBd7Mnafd-78" style="edgeStyle=orthogonalEdgeStyle;rounded=0;orthogonalLoop=1;jettySize=auto;html=1;entryX=1;entryY=0.5;entryDx=0;entryDy=0;" edge="1" parent="1" source="bqzICzT4jUBrBd7Mnafd-76" target="bqzICzT4jUBrBd7Mnafd-1">
          <mxGeometry relative="1" as="geometry" />
        </mxCell>
        <mxCell id="bqzICzT4jUBrBd7Mnafd-76" value="Вход в учётную запись" style="rounded=0;whiteSpace=wrap;html=1;" vertex="1" parent="1">
          <mxGeometry x="520" y="400" width="120" height="40" as="geometry" />
        </mxCell>
        <mxCell id="bqzICzT4jUBrBd7Mnafd-80" value="" style="edgeStyle=orthogonalEdgeStyle;rounded=0;orthogonalLoop=1;jettySize=auto;html=1;" edge="1" parent="1" source="bqzICzT4jUBrBd7Mnafd-79" target="bqzICzT4jUBrBd7Mnafd-76">
          <mxGeometry relative="1" as="geometry" />
        </mxCell>
        <mxCell id="bqzICzT4jUBrBd7Mnafd-79" value="Ввод учётных данных" style="rounded=0;whiteSpace=wrap;html=1;" vertex="1" parent="1">
          <mxGeometry x="680" y="400" width="120" height="40" as="geometry" />
        </mxCell>
        <mxCell id="bqzICzT4jUBrBd7Mnafd-86" style="edgeStyle=orthogonalEdgeStyle;rounded=0;orthogonalLoop=1;jettySize=auto;html=1;exitX=0;exitY=0.5;exitDx=0;exitDy=0;entryX=0.5;entryY=0;entryDx=0;entryDy=0;" edge="1" parent="1" source="bqzICzT4jUBrBd7Mnafd-85" target="bqzICzT4jUBrBd7Mnafd-76">
          <mxGeometry relative="1" as="geometry" />
        </mxCell>
        <mxCell id="bqzICzT4jUBrBd7Mnafd-85" value="Регистрация" style="rounded=0;whiteSpace=wrap;html=1;" vertex="1" parent="1">
          <mxGeometry x="680" y="320" width="120" height="40" as="geometry" />
        </mxCell>
      </root>
    </mxGraphModel>
  </diagram>
</mxfile>
